<?xml version="1.0" standalone="no"?><!DOCTYPE svg PUBLIC "-//W3C//DTD SVG 1.1//EN" "http://www.w3.org/Graphics/SVG/1.1/DTD/svg11.dtd"><svg t="1586423731557" class="icon" viewBox="0 0 1024 1024" version="1.1" xmlns="http://www.w3.org/2000/svg" p-id="1191" width="16" height="16" xmlns:xlink="http://www.w3.org/1999/xlink"><defs><style type="text/css"></style></defs><path d="M14.643004 649.232241V353.999376c0-21.238095-0.466771-43.036316 3.780848-63.620932 4.947776-23.805338 14.65662-46.677133 22.731763-70.0157a133.356569 133.356569 0 0 1 11.342544-26.185871c13.302983-21.751544 26.465934-43.736473 42.009419-64.087704a364.081636 364.081636 0 0 1 43.736474-47.984092 167.757615 167.757615 0 0 1 37.901832-25.532392 797.012044 797.012044 0 0 1 84.81235-39.115437A261.391944 261.391944 0 0 1 351.185132 3.034014c158.935637 0 317.871275-1.727054 476.806912-2.61392 38.882052 0 77.81078-1.073574 116.692832 0.606803 15.123391 0.65348 31.74045-3.174045 45.696913 7.141601 10.689063 7.888435 18.950916 16.336997 18.670853 31.507065-0.606803 50.131241 0 100.355836-0.233385 150.533753 0 14.843328-11.295866 26.465934-25.205652 32.673993-16.663736 7.234956-33.560859 6.441444-50.644689 6.441445h-574.128734c-31.74045 0-57.926322 14.00314-80.09796 35.661329-27.072737 26.232549-38.368603 58.346416-38.088541 96.481634 0.933543 131.442806 0.32674 262.932289 0.32674 394.421773 0 20.724647 5.321193 29.126531 24.878912 35.194558a118.606595 118.606595 0 0 0 33.514181 5.881318c120.567034 0.420094 241.180745 1.493668 361.701103-0.606802 30.013396-0.513448 60.353533-7.468341 85.232444-30.666877a112.025119 112.025119 0 0 0 36.96829-82.105076c0.420094-10.082261 0.32674-20.211199 0-30.29346-0.513448-15.263422-8.63527-24.785558-23.338567-27.212768a152.120776 152.120776 0 0 0-24.272109-2.380534h-259.058087c-9.335427 0-18.39079 0.373417-27.586186 0-20.02449-1.026897-39.535532-23.058504-39.255468-44.10989 0.560126-44.716693 1.120251-89.480064 0-134.196757-0.700157-22.591732 24.73888-48.077447 48.077446-47.610676 77.764103 1.446991 155.574884 0.560126 233.385665 0.560126 92.560754 0 185.168186 0.466771 277.72894-0.560126 14.283203 0 21.844898 6.301413 30.293459 14.890006s9.988906 17.924019 9.94223 29.219885c-0.32674 79.724543 0 159.449086-0.373417 239.173629a263.492415 263.492415 0 0 1-4.667714 50.691366c-3.967556 19.464364-8.075144 39.675563-16.803767 57.272842-12.976243 26.185872-25.39236 52.698483-42.382837 77.203978a510.227739 510.227739 0 0 1-61.193721 71.322659c-14.00314 14.00314-33.000733 23.571952-50.551335 33.70089a407.864787 407.864787 0 0 1-61.567138 31.600418 318.011306 318.011306 0 0 1-65.347986 15.076714c-78.557615 11.155835-157.628678 3.220722-236.513033 4.667714s-157.90874 0.32674-236.839772 0.32674c-58.346416 0-116.692832-0.32674-175.039248 0-17.877342 0-42.756254-20.911356-42.522868-41.122554 1.30696-110.858191 0.606803-221.669704 0.606803-332.527895z" fill="#FFFFFF" p-id="1192"></path></svg>